<?xml version="1.0" encoding="iso-8859-1"?>
<!-- Uploaded to: SVG Repo, www.svgrepo.com, Generator: SVG Repo Mixer Tools -->
<svg fill="#000000" height="800px" width="800px" version="1.1" id="Layer_1" xmlns="http://www.w3.org/2000/svg" xmlns:xlink="http://www.w3.org/1999/xlink" 
	 viewBox="0 0 430.286 430.286" xml:space="preserve">
<g>
	<g>
		<g>
			<path d="M354.058,327.794V48c0-4.418-3.582-8-8-8h-59.5V8c0-4.418-3.582-8-8-8h-135c-4.418,0-8,3.582-8,8v32h-59.5
				c-4.418,0-8,3.582-8,8v374.286c0,4.418,3.582,8,8,8h270c4.418,0,8-3.582,8-8v-46.46c5.118-6.661,8.17-14.987,8.17-24.016
				S359.176,334.455,354.058,327.794z M151.558,16h119v24h-119V16z M338.058,414.286h-254V56h59.5h135h59.5v259.407
				c-4.716-1.994-9.896-3.097-15.33-3.097h-1V80c0-4.418-3.582-8-8-8h-205.7c-4.418,0-8,3.582-8,8v271.81
				c0,21.78,17.72,39.5,39.5,39.5h183.2c5.434,0,10.614-1.104,15.33-3.097V414.286z M139.528,328.31c12.958,0,23.5,10.542,23.5,23.5
				s-10.542,23.5-23.5,23.5s-23.5-10.542-23.5-23.5V88h189.7v224.31h-166.2c-4.418,0-8,3.582-8,8
				C131.528,324.728,135.11,328.31,139.528,328.31z M322.728,375.31h-151.47h-0.004c4.881-6.572,7.773-14.704,7.773-23.5
				c0.001-8.795-2.889-16.929-7.769-23.5h151.47c12.958,0,23.5,10.542,23.5,23.5S335.686,375.31,322.728,375.31z"/>
			<path d="M148.058,186.918H197c4.418,0,8-3.582,8-8v-48.941c0-4.418-3.582-8-8-8h-48.941c-4.418,0-8,3.582-8,8v48.941
				C140.058,183.336,143.64,186.918,148.058,186.918z M189,137.977v32.941h-32.941l-0.001-32.941H189z"/>
			<path d="M228.308,148.393h51c4.418,0,8-3.582,8-8c0-4.418-3.582-8-8-8h-51c-4.418,0-8,3.582-8,8
				C220.308,144.811,223.89,148.393,228.308,148.393z"/>
			<path d="M228.308,177.143h51c4.418,0,8-3.582,8-8c0-4.418-3.582-8-8-8h-51c-4.418,0-8,3.582-8,8
				C220.308,173.561,223.89,177.143,228.308,177.143z"/>
			<path d="M148.058,276.585H197c4.418,0,8-3.582,8-8v-48.942c0-4.418-3.582-8-8-8h-48.941c-4.418,0-8,3.582-8,8v48.942
				C140.058,273.003,143.64,276.585,148.058,276.585z M189,227.643v32.942h-32.941l-0.001-32.942H189z"/>
			<path d="M228.308,238.06h51c4.418,0,8-3.582,8-8c0-4.418-3.582-8-8-8h-51c-4.418,0-8,3.582-8,8
				C220.308,234.478,223.89,238.06,228.308,238.06z"/>
			<path d="M228.308,266.81h51c4.418,0,8-3.582,8-8c0-4.418-3.582-8-8-8h-51c-4.418,0-8,3.582-8,8
				C220.308,263.228,223.89,266.81,228.308,266.81z"/>
		</g>
	</g>
</g>
</svg>